<?xml version="1.0" encoding="UTF-8"?>
<svg width="20px" height="20px" viewBox="0 0 20 20" version="1.1" xmlns="http://www.w3.org/2000/svg" xmlns:xlink="http://www.w3.org/1999/xlink">
    <title>结果校准</title>
    <g id="页面-1" stroke="none" stroke-width="1" fill="none" fill-rule="evenodd">
        <g id="拍机-任务中心-拍摄中-拍摄中心-进行拍摄" transform="translate(-1765.000000, -81.000000)" fill="#000000" fill-rule="nonzero">
            <g id="结果校准" transform="translate(1765.000000, 81.000000)">
                <path d="M19.02,9.24584141 L18.33,9.24584141 C18.33,9.24584141 18.32,9.24584141 18.32,9.23584684 C17.92,5.31797494 14.54,1.85985332 10.7,1.46007047 C10.7,1.46007047 10.69,1.46007047 10.69,1.4500759 L10.69,0.720472196 C10.69,0.310694784 10.35,-0.0191260633 9.94999999,0.00086307778 C9.42999999,0.0208522189 9.24,0.42063506 9.24,0.960341908 L9.24,1.51004333 C9.24,1.51004333 9.24,1.5200379 9.23,1.5200379 C5.38999999,1.91982074 2.16,5.31797494 1.67999999,9.22585227 C1.67999999,9.22585227 1.67999999,9.23584684 1.66999999,9.23584684 L0.979999996,9.23584684 C0.449999991,9.24584141 0,9.47571656 0,10.0054288 C0,10.5651248 0.399999994,10.7650162 0.959999998,10.7650162 L1.66999999,10.7650162 C1.66999999,10.7650162 1.67999999,10.7650162 1.67999999,10.7750108 C2.07999999,14.6928827 5.39999999,18.0810423 9.23,18.4808252 C9.23,18.4808252 9.24,18.4808252 9.24,18.4908198 L9.24,19.020532 C9.24,19.5502443 9.47,20 10,20 C10.56,20 10.76,19.6002172 10.76,19.0405212 L10.76,18.4908198 C10.76,18.4908198 10.76,18.4808252 10.77,18.4808252 C14.61,18.0010858 17.84,14.6828881 18.32,10.7750108 C18.32,10.7750108 18.32,10.7650162 18.33,10.7650162 L19.04,10.7650162 C19.6,10.7650162 20,10.5651248 20,10.0054288 C20,9.47571654 19.55,9.24584141 19.02,9.24584141 Z M10,12.5840282 C9.42000001,12.5840282 9.2,13.0038002 9.2,13.5834853 L9.2,16.8217264 C9.2,16.8217264 9.2,16.8317209 9.19,16.8317209 C6.28000001,16.411949 3.76,13.8033659 3.34,10.8149891 C3.34,10.8149891 3.34,10.8049945 3.35,10.8049945 L6.23,10.8049945 C6.78,10.8049945 7.24999999,10.5651248 7.25000001,10.0054288 C7.25000001,9.42574368 6.83000002,9.20586311 6.24999999,9.20586313 L3.35,9.20586313 C3.35,9.20586313 3.34,9.20586313 3.34,9.19586856 C3.76,6.20749177 6.28000001,3.59890871 9.19,3.17913671 C9.19,3.17913671 9.2,3.17913671 9.2,3.18913128 L9.2,6.5772909 C9.2,7.0670249 9.61999999,7.47680231 10.11,7.41683489 C10.6,7.35686746 10.73,6.90711175 10.73,6.35741035 L10.73,3.12916385 C10.73,3.12916385 10.73,3.11916928 10.74,3.11916928 C13.65,3.53894126 16.24,6.20749177 16.66,9.19586856 C16.66,9.19586856 16.66,9.20586313 16.65,9.20586313 L13.77,9.20586313 C13.22,9.20586313 12.75,9.44573284 12.75,10.0054288 C12.75,10.5851139 13.17,10.8049945 13.75,10.8049945 L16.66,10.8049945 C16.66,10.8049945 16.67,10.8049945 16.67,10.8149891 C16.25,13.8033659 13.73,16.4119489 10.82,16.8317209 C10.82,16.8317209 10.81,16.8317209 10.81,16.8217264 L10.81,13.5834853 C10.8,13.0038002 10.58,12.5840282 10,12.5840282 Z" id="形状"></path>
            </g>
        </g>
    </g>
</svg>