<?xml version="1.0" encoding="UTF-8"?>
<svg width="197px" height="168px" viewBox="0 0 197 168" version="1.1" xmlns="http://www.w3.org/2000/svg" xmlns:xlink="http://www.w3.org/1999/xlink">
    <title>身份验证</title>
    <g id="页面-1" stroke="none" stroke-width="1" fill="none" fill-rule="evenodd">
        <g id="身份验证" transform="translate(-862.000000, -323.000000)" fill="#85B83E" fill-rule="nonzero">
            <g transform="translate(862.000000, 323.000000)">
                <path d="M91.3750005,102.254142 C91.1743957,100.37554 90.2835071,98.6383071 88.8750005,97.3791419 C87.3633196,96.434971 85.7206422,95.7189322 84.0000005,95.2541419 L80.7500005,94.2541419 L79.5000005,94.2541419 L75.0000005,91.7541419 L73.5000005,91.0041419 C72.5580711,90.3827313 71.678919,89.6710367 70.8750005,88.8791419 L70.8750005,86.3791419 C70.8132376,85.9228893 70.8132376,85.4603945 70.8750005,85.0041419 L70.8750005,82.7541419 C70.9627016,81.5859396 71.4479765,80.4830421 72.2500005,79.6291419 L74.8750005,77.3791419 L75.6250005,76.5041419 L75.6250005,75.7541419 L75.0000005,72.8791419 C75.3237551,72.0269163 75.5746541,71.1487699 75.7500005,70.2541419 C76.3586428,70.0444237 76.9135034,69.702971 77.3750005,69.2541419 C77.8800048,68.7865506 78.3025899,68.2371899 78.6250005,67.6291419 C78.7270556,66.8407643 78.7270556,66.0425196 78.6250005,65.2541419 L78.6250005,64.1291419 C78.691683,63.5895275 78.691683,63.0437563 78.6250005,62.5041419 C78.6611924,62.0047968 78.6611924,61.503487 78.6250005,61.0041419 L77.8750005,60.1291419 C78.0622165,58.0082654 78.0622165,55.8750184 77.8750005,53.7541419 C77.612977,51.7660704 77.1950221,49.801682 76.6250005,47.8791419 C76.2657224,46.439102 75.719411,45.0523115 75.0000005,43.7541419 C74.7553699,43.2281475 74.4624469,42.7259938 74.1250005,42.2541419 L73.2500005,41.1291419 C72.5378527,40.1051795 71.6489629,39.2162897 70.6250005,38.5041419 C69.3954252,37.5495007 68.0517529,36.7516953 66.6250005,36.1291419 L62.5000005,34.6291419 C61.1694021,34.5083674 59.8305989,34.5083674 58.5000005,34.6291419 L57.1250005,34.6291419 C55.7945642,34.5048414 54.4554368,34.5048414 53.1250005,34.6291419 C51.7203971,34.8856575 50.3403513,35.2620336 49.0000005,35.7541419 C47.5732481,36.3766953 46.2295758,37.1745007 45.0000005,38.1291419 C43.964102,38.8700443 43.0382572,39.7538053 42.2500005,40.7541419 L41.5000005,41.8791419 L40.5000005,43.3791419 C39.8505749,44.5640639 39.3469143,45.8232152 39.0000005,47.1291419 C38.4299789,49.051682 38.012024,51.0160704 37.7500005,53.0041419 C37.6256108,55.1273216 37.6256108,57.2559622 37.7500005,59.3791419 L37.1250005,60.2541419 C37.0360673,60.7501874 37.0360673,61.2580965 37.1250005,61.7541419 C37.058318,62.2937563 37.058318,62.8395275 37.1250005,63.3791419 C37.0643384,63.7516887 37.0643384,64.1315952 37.1250005,64.5041419 C37.2268476,65.3200688 37.4370329,66.1187731 37.7500005,66.8791419 C38.0278199,67.5146963 38.4569722,68.0725943 39.0000005,68.5041419 C38.9633868,69.0984095 39.0484564,69.6938969 39.2500005,70.2541419 C39.2500005,71.1291419 39.2500005,72.1291419 40.0000005,72.8791419 L41.0000005,75.1291419 L41.0000005,75.8791419 L41.7500005,76.7541419 L44.3750005,79.0041419 C45.1402786,79.8700563 45.5819851,80.9743225 45.6250005,82.1291419 C45.6841767,82.9614247 45.6841767,83.7968591 45.6250005,84.6291419 C45.6838663,85.0855852 45.6838663,85.5476987 45.6250005,86.0041419 C45.7301144,86.3291886 45.7301144,86.6790953 45.6250005,87.0041419 L45.6250005,87.7541419 C45.6608989,88.0028532 45.6608989,88.2554306 45.6250005,88.5041419 C44.8001514,89.3239442 43.8763688,90.0377762 42.8750005,90.6291419 L41.3750005,91.3791419 L36.8750005,92.8791419 L35.5000005,92.8791419 L30.8750005,95.2541419 C29.1763548,95.9019589 27.5773388,96.7856257 26.1250005,97.8791419 C24.6752446,99.1060025 23.7753004,100.860894 23.6250005,102.754142 C23.2736969,105.702046 23.2736969,108.681238 23.6250005,111.629142 C23.5974323,113.101391 24.0348414,114.544841 24.8750005,115.754142 C25.6246118,116.245109 26.4828304,116.545486 27.3750005,116.629142 C28.934639,117.037324 30.5222888,117.329786 32.1250005,117.504142 L37.5000005,117.754142 L44.3750005,118.504142 L70.2500005,118.504142 L77.1250005,117.754142 L83.2500005,117.004142 L87.5000005,116.129142 C88.7500005,116.129142 89.6250005,116.129142 89.8750005,115.254142 C90.1250005,114.379142 90.8750005,113.504142 91.2500005,111.129142 C91.6428589,108.186188 91.6848194,105.206992 91.3750005,102.254142 L91.3750005,102.254142 Z" id="路径"></path>
                <path d="M127.5,135.379142 L16.8750005,135.379142 C14.4464298,135.187473 12.5565572,133.189608 12.5,130.754142 L12.5,17.0041419 C12.5,14.4498249 14.5706835,12.3791419 17.1250005,12.3791419 L179.625001,12.3791419 C182.179317,12.3791419 184.250001,14.4498249 184.250001,17.0041419 L184.250001,87.3791419 C184.250001,90.8309216 187.048221,93.6291419 190.5,93.6291419 C193.95178,93.6291419 196.750001,90.8309216 196.750001,87.3791419 L196.750001,17.0041419 C196.750001,7.66390086 189.214989,0.0728201569 179.875001,0.0041419172 L17.3750005,0.0041419172 C12.8017017,-0.0967643629 8.38071794,1.64965616 5.11102831,4.84877695 C1.84133867,8.04789775 0,12.4297302 0,17.0041419 L0,130.754142 C0.0680725615,140.045605 7.58353779,147.56107 16.8750005,147.629142 L127.5,147.629142 C130.95178,147.629142 133.750001,144.830922 133.750001,141.379142 C133.750001,137.927362 130.95178,135.129142 127.5,135.129142 L127.5,135.379142 Z" id="路径"></path>
                <path d="M158.125001,34.6291419 L96.6250005,34.6291419 C93.1732208,34.6291419 90.3750005,37.4273622 90.3750005,40.8791419 C90.3750005,44.3309216 93.1732208,47.1291419 96.6250005,47.1291419 L158.125001,47.1291419 C161.57678,47.1291419 164.375001,44.3309216 164.375001,40.8791419 C164.375001,37.4273622 161.57678,34.6291419 158.125001,34.6291419 Z" id="路径"></path>
                <path d="M152.000781,167.132031 L107.215625,128.952148 L107.254297,77.4523438 L152.077734,57.7574219 L196.863672,77.5197266 L196.825195,129.017969 L152.000781,167.132031 L152.000781,167.132031 Z M118.938477,123.54668 L152.010547,151.741211 L185.110547,123.596484 L185.139062,85.1550781 L152.067773,70.5617187 L118.967383,85.1056641 L118.938477,123.54668 L118.938477,123.54668 Z" id="形状"></path>
                <polygon id="路径" points="139.175977 100.717187 153.683789 114.395312 145.644727 122.921875 131.136914 109.24375"></polygon>
                <polygon id="路径" points="169.158008 91.2789063 177.607227 99.3986328 150.531055 127.573047 142.081836 119.453125"></polygon>
            </g>
        </g>
    </g>
</svg>