<?xml version="1.0" encoding="UTF-8"?>
<svg width="20px" height="20px" viewBox="0 0 20 20" version="1.1" xmlns="http://www.w3.org/2000/svg" xmlns:xlink="http://www.w3.org/1999/xlink">
    <title>确定</title>
    <g id="拍机用户" stroke="none" stroke-width="1" fill="none" fill-rule="evenodd">
        <g id="拍机-任务中心-拍摄中-拍摄中心-单页裁减-裁减框可调整大小" transform="translate(-1014.000000, -949.000000)" fill="#85B83E">
            <g id="编组-4" transform="translate(815.000000, 938.000000)">
                <g id="编组-2备份" transform="translate(199.000000, 9.000000)">
                    <g id="确定" transform="translate(0.000000, 2.000000)">
                        <path d="M10,1.42857143 C14.7142857,1.42857143 18.5714286,5.28571429 18.5714286,10 C18.5714286,14.7142857 14.7142857,18.5714286 10,18.5714286 C5.28571429,18.5714286 1.42857143,14.7142857 1.42857143,10 C1.42857143,5.28571429 5.28571429,1.42857143 10,1.42857143 M10,0 C4.42857143,0 0,4.42857143 0,10 C0,15.5714286 4.42857143,20 10,20 C15.5714286,20 20,15.5714286 20,10 C20,4.42857143 15.5714286,0 10,0 Z" id="形状" fill-rule="nonzero"></path>
                        <path d="M14.7792368,7.22737134 C14.920493,7.37103784 15,7.56698574 15,7.77145038 C15,7.97591502 14.920493,8.17186292 14.7792368,8.31552942 L9.47617656,13.7773267 C9.34981919,13.9031977 9.18602172,13.9816286 9.01113897,14 L8.94587054,14 C8.74764683,14 8.55730513,13.9200468 8.41556452,13.7773267 L5.24188693,10.5086511 C5.03935789,10.3163764 4.95535262,10.0252963 5.02302871,9.75030252 C5.0907048,9.47530875 5.29918882,9.26058415 5.5661904,9.19088231 C5.83319198,9.12118047 6.11581238,9.20770027 6.30249898,9.41629164 L8.94587054,12.1387875 L13.722704,7.22737134 C13.8621951,7.08188689 14.0524482,7 14.2509704,7 C14.4494927,7 14.6397457,7.08188689 14.7792368,7.22737134 Z" id="路径"></path>
                    </g>
                </g>
            </g>
        </g>
    </g>
</svg>