<?xml version="1.0" encoding="UTF-8"?>
<svg width="14px" height="14px" viewBox="0 0 14 14" version="1.1" xmlns="http://www.w3.org/2000/svg" xmlns:xlink="http://www.w3.org/1999/xlink">
    <title>关闭</title>
    <g id="拍机用户" stroke="none" stroke-width="1" fill="none" fill-rule="evenodd">
        <g id="欢迎页" transform="translate(-1377.000000, -173.000000)" fill="#666666" fill-rule="nonzero">
            <g id="关闭" transform="translate(1377.000000, 173.000000)">
                <path d="M13.6598851,12.0151983 L8.62809215,6.96509594 L13.6552799,1.99048909 C14.1116344,1.53959998 14.1150783,0.802677588 13.6644503,0.345978037 C13.2138623,-0.111282509 12.4762707,-0.114768779 12.0198361,0.337282451 L6.98808317,5.31769972 L2.03125476,0.341930772 C1.57722286,-0.112444599 0.841873838,-0.11472868 0.386680626,0.339606592 C-0.0673913048,0.794583057 -0.0673913048,1.53034336 0.384357998,1.98475879 L5.33541992,6.9535953 L0.345193862,11.8928988 C-0.111200697,12.34495 -0.115805881,13.0796284 0.335983495,13.5364081 C0.564160758,13.767062 0.861536032,13.8823088 1.16115383,13.8823088 C1.45620647,13.8823088 1.75350164,13.7693461 1.97943638,13.5467466 L6.97655025,8.60047059 L12.0129483,13.6586274 C12.2400043,13.885755 12.5384608,14 12.8369573,14 C13.1343326,14 13.4304264,13.885755 13.6575225,13.6609115 C14.1116344,13.2077383 14.1127157,12.4718578 13.6598851,12.0151983" id="路径"></path>
            </g>
        </g>
    </g>
</svg>