<?xml version="1.0" encoding="UTF-8"?>
<svg width="20px" height="20px" viewBox="0 0 20 20" version="1.1" xmlns="http://www.w3.org/2000/svg" xmlns:xlink="http://www.w3.org/1999/xlink">
    <title>取消</title>
    <g id="拍机用户" stroke="none" stroke-width="1" fill="none" fill-rule="evenodd">
        <g id="拍机-任务中心-拍摄中-拍摄中心-单页裁减-裁减框可调整大小" transform="translate(-844.000000, -949.000000)" fill="#666666" fill-rule="nonzero">
            <g id="编组-4" transform="translate(815.000000, 938.000000)">
                <g id="编组-2" transform="translate(29.000000, 9.000000)">
                    <g id="取消" transform="translate(0.000000, 2.000000)">
                        <path d="M10,1.42857143 C14.7142857,1.42857143 18.5714286,5.28571429 18.5714286,10 C18.5714286,14.7142857 14.7142857,18.5714286 10,18.5714286 C5.28571429,18.5714286 1.42857143,14.7142857 1.42857143,10 C1.42857143,5.28571429 5.28571429,1.42857143 10,1.42857143 M10,0 C4.42857143,0 0,4.42857143 0,10 C0,15.5714286 4.42857143,20 10,20 C15.5714286,20 20,15.5714286 20,10 C20,4.42857143 15.5714286,0 10,0 Z" id="形状"></path>
                        <path d="M13,6 L10,9 L7,6 C6.71428571,5.71428571 6.28571429,5.71428571 6,6 C5.71428571,6.28571429 5.71428571,6.71428571 6,7 L9,10 L6,13 C5.71428571,13.2857143 5.71428571,13.7142857 6,14 C6.28571429,14.2857143 6.71428571,14.2857143 7,14 L10,11 L13,14 C13.2857143,14.2857143 13.7142857,14.2857143 14,14 C14.2857143,13.7142857 14.2857143,13.2857143 14,13 L11,10 L14,7 C14.2857143,6.71428571 14.2857143,6.28571429 14,6 C13.7142857,5.71428571 13.2857143,5.71428571 13,6 Z" id="路径"></path>
                    </g>
                </g>
            </g>
        </g>
    </g>
</svg>