<?xml version="1.0" encoding="UTF-8"?>
<svg width="20px" height="20px" viewBox="0 0 20 20" version="1.1" xmlns="http://www.w3.org/2000/svg" xmlns:xlink="http://www.w3.org/1999/xlink">
    <title>帮助中心 (1)</title>
    <g id="拍机用户" stroke="none" stroke-width="1" fill="none" fill-rule="evenodd">
        <g id="拍机-任务中心-拍摄中-拍摄中心-进行拍摄-未裁减前拍摄" transform="translate(-1792.000000, -30.000000)" fill="#FFFFFF" fill-rule="nonzero">
            <g id="编组-3备份" transform="translate(0.000000, 20.000000)">
                <g id="编组-7" transform="translate(1692.000000, 5.000000)">
                    <g id="帮助中心-(1)" transform="translate(100.000000, 5.000000)">
                        <path d="M10,20 C4.48958333,20 0,15.5104167 0,10 C0,4.48958333 4.48958333,0 10,0 C15.5104167,0 20,4.48958333 20,10 C20,15.5104167 15.5104167,20 10,20 Z M10,1.25 C5.17708333,1.25 1.25,5.17708333 1.25,10 C1.25,14.8229167 5.17708333,18.75 10,18.75 C14.8229167,18.75 18.75,14.8229167 18.75,10 C18.75,5.17708333 14.8229167,1.25 10,1.25 Z" id="形状"></path>
                        <path d="M10.0208333,13.9479167 C9.67708333,13.9479167 9.39583333,13.6666667 9.39583333,13.3229167 L9.39583333,12.2604167 C9.39583333,11.3333333 10.0833333,10.7604167 10.6979167,10.2604167 C10.8333333,10.1458333 10.9791667,10.03125 11.1041667,9.91666667 C11.9583333,9.14583333 12.3541667,8.27083333 12.1458333,7.61458333 C11.9375,6.98958333 11.4375,6.51041667 10.75,6.30208333 C10.0625,6.09375 9.33333333,6.21875 8.84375,6.60416667 C7.71875,7.52083333 7.79166667,8.66666667 7.79166667,8.71875 C7.82291667,9.0625 7.57291667,9.36458333 7.22916667,9.39583333 C6.88541667,9.42708333 6.58333333,9.16666667 6.55208333,8.82291667 C6.54166667,8.75 6.40625,6.97916667 8.07291667,5.63541667 C8.88541667,4.97916667 10.03125,4.78125 11.1145833,5.10416667 C12.1979167,5.42708333 13.0104167,6.19791667 13.34375,7.22916667 C13.7083333,8.375 13.1875,9.71875 11.9479167,10.84375 C11.8020833,10.9791667 11.6458333,11.1041667 11.5,11.2291667 C10.96875,11.6666667 10.65625,11.9479167 10.65625,12.2604167 L10.65625,13.3125 C10.6458333,13.6666667 10.3645833,13.9479167 10.0208333,13.9479167 Z" id="路径"></path>
                        <path d="M9.27083333,15.3333333 C9.27083333,15.7475469 9.60661977,16.0833333 10.0208333,16.0833333 C10.4350469,16.0833333 10.7708333,15.7475469 10.7708333,15.3333333 C10.7708333,14.9191198 10.4350469,14.5833333 10.0208333,14.5833333 C9.60661977,14.5833333 9.27083333,14.9191198 9.27083333,15.3333333 Z" id="路径"></path>
                    </g>
                </g>
            </g>
        </g>
    </g>
</svg>