<?xml version="1.0" encoding="UTF-8"?>
<svg width="94px" height="80px" viewBox="0 0 94 80" version="1.1" xmlns="http://www.w3.org/2000/svg" xmlns:xlink="http://www.w3.org/1999/xlink">
    <title>拍摄</title>
    <g id="页面-1" stroke="none" stroke-width="1" fill="none" fill-rule="evenodd">
        <g id="拍机-任务中心-同步完成" transform="translate(-512.000000, -132.000000)" fill-rule="nonzero">
            <g id="编组-2" transform="translate(106.000000, 127.000000)">
                <g id="拍摄" transform="translate(406.000000, 5.000000)">
                    <path d="M58.75,0 C64.7267433,0 70.0550745,3.77025473 72.04865,9.41176469 L79.9,9.41176469 C83.6395525,9.41176469 87.2259427,10.8991554 89.8702056,13.5467278 C92.5144686,16.1943002 94,19.785179 94,23.5294118 L94,65.882353 C94,73.6793141 87.687215,80 79.9,80 L14.1,80 C6.31278502,80 0,73.6793141 0,65.882353 L0,23.5294118 C0,19.785179 1.48553142,16.1943002 4.12979435,13.5467278 C6.77405728,10.8991554 10.3604475,9.41176469 14.1,9.41176469 L21.95135,9.41176469 C23.88775,3.92941172 29.1118,0 35.25,0 L58.75,0 Z M58.1111111,7 L35.8888889,7 C32.1212979,7 28.762191,9.3848568 27.5044445,12.9540667 L26.4577778,15.9333334 L15.8888889,15.9333334 C13.531409,15.9333334 11.2704853,16.8745212 9.60349525,18.5498462 C7.93650522,20.2251712 7,22.4973995 7,24.8666668 L7,65.0666667 C7,70.0004104 10.9796911,74 15.8888889,74 L78.1111111,74 C83.0203089,74 87,70.0004104 87,65.0666667 L87,24.8666668 C87,22.4973995 86.0634948,20.2251712 84.3965048,18.5498462 C82.7295147,16.8745212 80.468591,15.9333334 78.1111111,15.9333334 L67.5422223,15.9333334 L66.4955556,12.9540667 C65.2378091,9.38485677 61.8787022,7 58.1111111,7 Z M47,21.1764706 C54.5564732,21.1760111 61.5391388,25.2121231 65.3175078,31.7643346 C69.0958769,38.3165461 69.0958769,46.3893363 65.3175078,52.9415478 C61.5391388,59.4937594 54.5564732,63.5298713 47,63.5294118 C35.3196792,63.5287015 25.8512846,54.0478807 25.8512846,42.3529412 C25.8512846,30.6580017 35.3196792,21.177181 47,21.1764706 Z M47,25.882353 C41.122981,25.882353 35.6923915,29.0216292 32.7538819,34.117647 C29.8153724,39.2136648 29.8153724,45.4922176 32.7538819,50.5882353 C35.6923915,55.6842531 41.122981,58.8235294 47,58.8235294 C56.085084,58.8235294 63.4499997,51.4493958 63.4499997,42.3529412 C63.4499997,33.2564866 56.085084,25.882353 47,25.882353 L47,25.882353 Z M72,19 C73.4290623,19 74.7495704,19.7623956 75.4641016,21 C76.1786328,22.2376043 76.1786328,23.7623957 75.4641016,25 C74.7495704,26.2376044 73.4290623,27 72,27 C69.7908609,27 68,25.209139 68,23 C68,20.790861 69.7908609,19 72,19 L72,19 Z" id="形状" fill="#B6B6B6"></path>
                    <path d="M47,30.5882353 C51.1978707,30.5882353 55.0768633,32.8305755 57.1757987,36.4705882 C59.2747341,40.1106009 59.2747341,44.5952815 57.1757987,48.2352942 C55.0768633,51.8753069 51.1978707,54.117647 47,54.117647 C40.5106542,54.117647 35.25,48.8504088 35.25,42.3529412 C35.25,35.8554735 40.5106542,30.5882353 47,30.5882353 L47,30.5882353 Z" id="路径" fill="#85B83E"></path>
                    <path d="M47,35.2941177 C44.4812775,35.2941177 42.153882,36.6395217 40.8945207,38.8235294 C39.6351595,41.007537 39.6351595,43.6983454 40.8945207,45.882353 C42.153882,48.0663606 44.4812775,49.4117647 47,49.4117647 C50.8936074,49.4117647 54.0499998,46.2514217 54.0499998,42.3529412 C54.0499998,38.4544607 50.8936074,35.2941177 47,35.2941177 Z" id="路径" fill="#85B83E"></path>
                </g>
            </g>
        </g>
    </g>
</svg>