<?xml version="1.0" encoding="UTF-8"?>
<svg width="115px" height="82px" viewBox="0 0 115 82" version="1.1" xmlns="http://www.w3.org/2000/svg" xmlns:xlink="http://www.w3.org/1999/xlink">
    <title>云同步 (1)</title>
    <g id="页面-1" stroke="none" stroke-width="1" fill="none" fill-rule="evenodd">
        <g id="拍机-任务中心-自检完成" transform="translate(-715.000000, -130.000000)" fill="#85B83E" fill-rule="nonzero" stroke="#F9F9F9">
            <g id="编组-2" transform="translate(106.000000, 127.000000)">
                <g id="云同步-(1)" transform="translate(610.000000, 4.000000)">
                    <path d="M89.6606445,79.9889457 C87.2770508,79.9889457 85.3458984,78.0544424 85.3458984,75.6667127 C85.3458984,73.278983 87.2770508,71.3444798 89.6606445,71.3444798 C97.7825195,71.3444798 104.381543,64.7229515 104.381543,56.5980379 C104.381543,48.9263507 98.4004883,42.4816913 90.7641602,41.9068675 C88.634375,41.7521072 86.9459961,40.0497444 86.7804688,37.9162636 C85.5666016,21.4895675 71.7395508,8.63341163 55.297168,8.63341163 C38.5126953,8.63341163 24.6746094,21.799088 23.7807617,38.5905762 C23.6704102,40.5692967 22.246875,42.216388 20.3046875,42.6032887 C13.5291016,43.9298052 8.60742187,49.9101838 8.60742187,56.8412326 C8.60742187,64.8445488 15.1071289,71.3555341 23.096582,71.3555341 C25.4801758,71.3555341 27.4113281,73.2900373 27.4113281,75.677767 C27.4113281,78.0654968 25.4801758,80 23.096582,80 C10.3620117,79.9889457 0,69.5978997 0,56.8412326 C0,46.9144673 6.34521484,38.1926213 15.4712891,34.9979273 C18.0645508,15.1333425 34.9924805,0 55.297168,0 C75.0611328,0 91.8566406,14.6137902 94.9685547,33.8482797 C105.319531,36.2802266 113,45.6542766 113,56.5980379 C113,69.4984109 102.527637,79.9889457 89.6606445,79.9889457 Z" id="路径"></path>
                    <g id="云同步-(2)" transform="translate(35.000000, 32.000000)" stroke-width="0.8">
                        <path d="M20.9999397,0.560853882 L40.4833705,19.710021 C41.2273795,20.4413191 41.6,21.3995947 41.6,22.3581878 C41.6,23.3167809 41.2273795,24.2750564 40.4834227,25.0063032 C39.7365693,25.7401287 38.7577034,26.1065299 37.7791248,26.1065299 C36.8005645,26.1065299 35.8216012,25.7401472 35.074859,25.0062163 L35.074859,25.0062163 L24.8149719,14.9230258 L24.8158591,45.0278197 C24.8158591,45.6294417 24.44834,46.1630851 23.8935209,46.555022 C23.2792427,46.9889621 22.4307131,47.2528197 21.4999541,47.2528197 C20.5691951,47.2528197 19.7206655,46.9889621 19.1063873,46.555022 C18.5515682,46.1630851 18.1840491,45.6294417 18.1840491,45.027819 L18.1840491,45.027819 L18.1839984,13.9389207 L6.92501087,25.0062257 C6.17830518,25.7401207 5.19937897,26.1065299 4.22074162,26.1065299 C3.24218474,26.1065299 2.26332846,25.7401781 1.51662945,25.006236 C0.772620453,24.2749379 0.4,23.3166623 0.4,22.3580692 C0.4,21.3994762 0.772620453,20.4412006 1.51661902,19.7099128 L1.51661902,19.7099128 L20.9999397,0.560853882 Z" id="形状结合"></path>
                    </g>
                </g>
            </g>
        </g>
    </g>
</svg>