<?xml version="1.0" encoding="UTF-8"?>
<svg width="115px" height="82px" viewBox="0 0 115 82" version="1.1" xmlns="http://www.w3.org/2000/svg" xmlns:xlink="http://www.w3.org/1999/xlink">
    <title>同步</title>
    <g id="页面-1" stroke="none" stroke-width="1" fill="none" fill-rule="evenodd">
        <g id="拍机-任务中心-任务池" transform="translate(-938.000000, -126.000000)" fill-rule="nonzero" stroke="#F9F9F9">
            <g id="编组-2" transform="translate(106.000000, 127.000000)">
                <g id="云同步-(1)" transform="translate(833.000000, 0.000000)">
                    <path d="M89.6606445,79.9889457 C87.2770508,79.9889457 85.3458984,78.0544424 85.3458984,75.6667127 C85.3458984,73.278983 87.2770508,71.3444798 89.6606445,71.3444798 C97.7825195,71.3444798 104.381543,64.7229515 104.381543,56.5980379 C104.381543,48.9263507 98.4004883,42.4816913 90.7641602,41.9068675 C88.634375,41.7521072 86.9459961,40.0497444 86.7804688,37.9162636 C85.5666016,21.4895675 71.7395508,8.63341163 55.297168,8.63341163 C38.5126953,8.63341163 24.6746094,21.799088 23.7807617,38.5905762 C23.6704102,40.5692967 22.246875,42.216388 20.3046875,42.6032887 C13.5291016,43.9298052 8.60742187,49.9101838 8.60742187,56.8412326 C8.60742187,64.8445488 15.1071289,71.3555341 23.096582,71.3555341 C25.4801758,71.3555341 27.4113281,73.2900373 27.4113281,75.677767 C27.4113281,78.0654968 25.4801758,80 23.096582,80 C10.3620117,79.9889457 0,69.5978997 0,56.8412326 C0,46.9144673 6.34521484,38.1926213 15.4712891,34.9979273 C18.0645508,15.1333425 34.9924805,0 55.297168,0 C75.0611328,0 91.8566406,14.6137902 94.9685547,33.8482797 C105.319531,36.2802266 113,45.6542766 113,56.5980379 C113,69.4984109 102.527637,79.9889457 89.6606445,79.9889457 Z" id="路径" fill="#B6B6B6"></path>
                    <path d="M73.4365674,32.892401 C74.4066466,32.8022921 75.4107128,33.0833138 76.2198798,33.7571621 C77.0301646,34.4319412 77.4913953,35.3708237 77.5814708,36.3439119 C77.6714679,37.3161529 77.3909078,38.3225076 76.7174731,39.1339875 L76.7174731,39.1339875 L53.8416071,66.7697326 C53.181231,67.5674503 52.2210598,68.0650423 51.1823798,68.1364337 C49.9801059,68.1535236 49.0551259,67.8091125 48.3339192,67.1559836 L48.3339192,67.1559836 L36.1045105,56.3550934 C35.3282076,55.641025 34.9133195,54.679873 34.8709159,53.7028965 C34.8285665,52.7271716 35.157815,51.7356467 35.8709064,50.957709 C36.5779911,50.1810086 37.5339018,49.766015 38.5079695,49.7235908 C39.4823835,49.6811514 40.4748137,50.0114927 41.2644577,50.7330861 L41.2644577,50.7330861 L50.5443926,58.8039382 L70.8552701,34.2560227 C71.5286311,33.4446323 72.46548,32.9826035 73.4365674,32.892401 Z" id="路径" fill="#85B83E"></path>
                </g>
            </g>
        </g>
    </g>
</svg>