<?xml version="1.0" encoding="UTF-8"?>
<svg width="7px" height="7px" viewBox="0 0 7 7" version="1.1" xmlns="http://www.w3.org/2000/svg" xmlns:xlink="http://www.w3.org/1999/xlink">
    <title>编组 5</title>
    <g id="拍机用户" stroke="none" stroke-width="1" fill="none" fill-rule="evenodd" opacity="0.5">
        <g id="拍机-任务中心-拍摄中-拍摄中心-进行拍摄-裁减后拍摄-对图片进行备注后" transform="translate(-286.000000, -80.000000)" fill="#FFFFFF" fill-rule="nonzero">
            <g id="编组-8" transform="translate(0.000000, 60.000000)">
                <g id="编组-5" transform="translate(286.000000, 20.000000)">
                    <path d="M1.03456445,3.50019158 L3.8744624,0.717083046 C4.04184587,0.552766113 4.04184587,0.286832796 3.8744624,0.123040837 C3.70708729,-0.0410136124 3.43552869,-0.0410136124 3.26815358,0.123040837 L0.125343412,3.20323398 C-0.0417811375,3.36728843 -0.0417811375,3.63335722 0.125343412,3.79689516 L3.26815357,6.87696129 C3.35210004,6.95899274 3.46182094,7 3.57155854,7 C3.68130449,7 3.7910254,6.95898427 3.87446239,6.87669879 C4.04184586,6.71264434 4.04184586,6.44709206 3.87446239,6.28303762 L1.03456445,3.50019158" id="路径"></path>
                    <path d="M4.03456445,3.50019158 L6.8744624,0.717083046 C7.04184587,0.552766113 7.04184587,0.286832796 6.8744624,0.123040837 C6.70708729,-0.0410136124 6.43552869,-0.0410136124 6.26815358,0.123040837 L3.12534341,3.20323398 C2.95821886,3.36728843 2.95821886,3.63335722 3.12534341,3.79689516 L6.26815357,6.87696129 C6.35210004,6.95899274 6.46182094,7 6.57155854,7 C6.68130449,7 6.7910254,6.95898427 6.87446239,6.87669879 C7.04184586,6.71264434 7.04184586,6.44709206 6.87446239,6.28303762 L4.03456445,3.50019158" id="路径备份"></path>
                </g>
            </g>
        </g>
    </g>
</svg>