<?xml version="1.0" encoding="UTF-8"?>
<svg width="287px" height="135px" viewBox="0 0 287 135" version="1.1" xmlns="http://www.w3.org/2000/svg" xmlns:xlink="http://www.w3.org/1999/xlink">
    <title>logo</title>
    <g id="页面-1" stroke="none" stroke-width="1" fill="none" fill-rule="evenodd">
        <g id="欢迎页" transform="translate(-801.000000, -285.000000)">
            <g id="logo" transform="translate(801.000000, 285.000000)">
                <g>
                    <path d="M41.9787979,54.8867647 C26.091796,82.5780206 28.0476318,109.004981 47.8463054,134.167647 C48.2871626,134.00267 59.4961372,134.167647 66.3390075,134.167647 C33.2184979,107.832676 39.7727973,72.1249976 49.9313967,54.8867647 C50.1167958,54.9540687 47.4659295,54.9540687 41.9787979,54.8867647 Z" id="路径-2" fill="#9C957B"></path>
                    <path d="M24.7742639,73.1823529 C25.8695293,75.5469379 28.3610837,78.2628533 32.2489272,81.330099 C33.7661414,82.3291838 34.7776782,82.6443462 35.2835374,82.2755862 L31.534164,88.3715651 C26.6630809,85.1566757 22.7270623,80.093605 19.7261084,73.1823529 C19.7261084,73.1823529 21.4088269,73.1823529 24.7742639,73.1823529 Z" id="路径-3" fill="#9C957B"></path>
                    <path d="M42.5461077,102.340281 C48.8005857,99.6993312 53.0734436,96.227274 55.3646814,91.9241098 C55.3646814,91.9241098 56.7418334,92.2278244 59.4961372,92.8352535 C56.7418334,99.8096314 51.522921,105.766325 43.8394,110.705335 C42.5922411,110.777617 42.1611437,107.989266 42.5461077,102.340281 Z" id="路径-4" fill="#9C957B"></path>
                    <rect id="矩形" stroke="#85B83E" stroke-width="7.14" x="3.57" y="44.5773529" width="24.9673892" height="25.035"></rect>
                    <rect id="矩形-copy-7" stroke="#BAB7B1" stroke-width="5.25" x="15.0062808" y="18.6073529" width="14.4761084" height="14.5176471"></rect>
                    <rect id="矩形-copy-8" stroke="#9C957B" stroke-width="5.67" x="39.9788424" y="32.9070588" width="19.512266" height="19.5652941"></rect>
                    <rect id="矩形-copy-9" stroke="#BAB7B1" stroke-width="7.14" x="71.1424138" y="28.595" width="23.0787192" height="23.1423529"></rect>
                    <rect id="矩形-copy-10" stroke="#BAB7B1" stroke-width="7.56" x="53.7248276" y="64.3447059" width="24.7572414" height="24.8252941"></rect>
                    <rect id="矩形-copy-11" stroke="#85B83E" stroke-width="5.67" x="39.9788424" y="2.835" width="19.512266" height="19.5652941"></rect>
                </g>
                <g id="DCam" transform="translate(97.485005, 79.942980)" fill="#85B83E" fill-rule="nonzero">
                    <path d="M36.8256,33.8688 C36.0192,37.632 34.7872,40.096 33.1296,41.2608 C31.472,42.4256 28.4928,43.008 24.192,43.008 L0,43.008 L6.5184,12.2976 L15.6576,12.2976 L10.8192,35.28 L22.4448,35.28 C24.5504,35.28 25.9504,35.0448 26.6448,34.5744 C27.3392,34.104 27.9104,32.8384 28.3584,30.7776 L32.256,12.2976 C32.5248,11.1776 32.6592,10.3488 32.6592,9.8112 C32.6592,8.8256 32.144,8.1984 31.1136,7.9296 C30.6656,7.84 29.7248,7.7952 28.2912,7.7952 L7.4592,7.7952 L9.1392,0.0672 L33.3312,0.0672 C36.7808,0.0672 39.1888,0.4032 40.5552,1.0752 C41.9216,1.7472 42.6048,3.0912 42.6048,5.1072 C42.6048,6.1376 42.4256,7.504 42.0672,9.2064 L36.8256,33.8688 Z" id="D"></path>
                    <path d="M77.0784,43.008 L52.0128,43.008 C48.5632,43.008 46.1888,42.672 44.8896,42 C43.456,41.2832 42.7392,39.9392 42.7392,37.968 C42.7392,36.8928 42.9184,35.5264 43.2768,33.8688 L48.5184,9.1392 C49.3248,5.376 50.5568,2.912 52.2144,1.7472 C53.872,0.5824 56.8512,0 61.152,0 L86.2176,0 L84.5376,7.728 L62.9664,7.728 C60.8608,7.728 59.4944,7.9296 58.8672,8.3328 C58.1056,8.8704 57.5008,10.1696 57.0528,12.2304 L53.1552,30.7776 C52.8864,31.8528 52.752,32.6592 52.752,33.1968 C52.752,34.2272 53.2672,34.8544 54.2976,35.0784 C54.7456,35.2128 55.6864,35.28 57.12,35.28 L78.6912,35.28 L77.0784,43.008 Z" id="C"></path>
                    <path d="M115.8528,43.008 L92.064,43.008 C88.6144,43.008 86.24,42.672 84.9408,42 C83.5072,41.2832 82.7904,39.9392 82.7904,37.968 C82.7904,36.8928 82.9696,35.5264 83.328,33.8688 L83.7312,32.1216 C84.5376,28.3584 85.7696,25.8944 87.4272,24.7296 C89.0848,23.5648 92.0416,22.9824 96.2976,22.9824 L107.0496,22.9824 L105.3696,30.7104 L95.424,30.7104 C94.5728,30.7104 93.8672,31.0016 93.3072,31.584 C92.7472,32.1664 92.4672,32.816 92.4672,33.5328 C92.4672,34.6976 93.1392,35.28 94.4832,35.28 L108.3264,35.28 L110.9472,22.9824 C111.1712,21.9072 111.2832,21.1008 111.2832,20.5632 C111.2832,19.5776 110.768,18.9504 109.7376,18.6816 C109.2896,18.5472 108.3488,18.48 106.9152,18.48 L88.0992,18.48 L89.7792,10.752 L112.0224,10.752 C115.472,10.752 117.88,11.0992 119.2464,11.7936 C120.6128,12.488 121.296,13.8208 121.296,15.792 C121.296,16.8672 121.1168,18.2336 120.7584,19.8912 L115.8528,43.008 Z" id="a"></path>
                    <path d="M183.8592,43.008 L174.72,43.008 L179.0208,22.9824 C179.2448,21.8624 179.3568,21.056 179.3568,20.5632 C179.3568,19.5328 178.8416,18.9056 177.8112,18.6816 C177.3632,18.5472 176.4224,18.48 174.9888,18.48 L167.664,18.48 C165.6032,18.48 164.2592,18.6816 163.632,19.0848 C162.8256,19.6224 162.2208,20.9216 161.8176,22.9824 L157.5168,43.008 L148.3776,43.008 L153.0144,21.168 C153.1488,19.8688 152.7232,19.0624 151.7376,18.7488 C151.3344,18.5696 150.3264,18.48 148.7136,18.48 L141.3888,18.48 C139.2832,18.48 137.9168,18.6816 137.2896,19.0848 C136.528,19.6224 135.9232,20.9216 135.4752,22.9824 L131.2416,43.008 L122.0352,43.008 L128.8896,10.752 L138.096,10.752 L137.2224,14.784 C138.9696,12.096 141.2768,10.752 144.144,10.752 L153.7536,10.752 C156.8448,10.752 159.04,10.9984 160.3392,11.4912 C161.8176,12.0736 162.6688,13.104 162.8928,14.5824 C163.4752,13.2384 164.6624,12.2304 166.4544,11.5584 C167.7536,11.0208 169.0752,10.752 170.4192,10.752 L180.0288,10.752 C183.4784,10.752 185.8864,11.0992 187.2528,11.7936 C188.6192,12.488 189.3024,13.8208 189.3024,15.792 C189.3024,16.8672 189.1232,18.2336 188.7648,19.8912 L183.8592,43.008 Z" id="m"></path>
                </g>
            </g>
        </g>
    </g>
</svg>