<?xml version="1.0" encoding="UTF-8"?>
<svg width="30px" height="30px" viewBox="0 0 30 30" version="1.1" xmlns="http://www.w3.org/2000/svg" xmlns:xlink="http://www.w3.org/1999/xlink">
    <title>更多 (2)</title>
    <g id="拍机用户" stroke="none" stroke-width="1" fill="none" fill-rule="evenodd">
        <g id="更多-(2)" transform="translate(5.000000, 12.000000)" fill="#FFFFFF" fill-rule="nonzero">
            <path d="M2.4994401,5 C1.11982084,5 0,3.87992831 0,2.5 C0,1.12007169 1.11982084,0 2.4994401,0 C3.87905936,0 4.99888019,1.12007169 4.99888019,2.5 C4.99888019,3.87992831 3.87905936,5 2.4994401,5 Z" id="路径"></path>
            <path d="M9.99776036,5 C8.6181411,5 7.49832026,3.87992831 7.49832026,2.5 C7.49832026,1.12007169 8.6181411,0 9.99776036,0 C11.3773796,0 12.4972005,1.12007169 12.4972005,2.5 C12.4972005,3.87992831 11.3773796,5 9.99776036,5 Z" id="路径"></path>
            <path d="M17.5005599,5 C16.1209406,5 15.0011198,3.87992831 15.0011198,2.5 C15.0011198,1.12007169 16.1209406,0 17.5005599,0 C18.8801792,0 20,1.12007169 20,2.5 C20,3.87992831 18.8756999,5 17.5005599,5 Z" id="路径"></path>
        </g>
    </g>
</svg>