<?xml version="1.0" encoding="UTF-8"?>
<svg width="20px" height="24px" viewBox="0 0 20 24" version="1.1" xmlns="http://www.w3.org/2000/svg" xmlns:xlink="http://www.w3.org/1999/xlink">
    <title>消息</title>
    <g id="页面-1" stroke="none" stroke-width="1" fill="none" fill-rule="evenodd">
        <g id="拍机-任务中心-任务池" transform="translate(-1880.000000, -28.000000)" fill="#FFFFFF" fill-rule="nonzero">
            <g id="编组-3" transform="translate(0.000000, 20.000000)">
                <g id="消息" transform="translate(1880.000000, 8.000000)">
                    <path d="M7.52372655,21.0667426 C8.06846728,21.8988258 9.00028221,22.4006117 9.99973149,22.4000808 C11.0363236,22.4000808 11.9488469,21.8694122 12.4757364,21.0667426 L14.272317,21.0667426 C13.6012565,22.8318567 11.8997379,24 9.99973149,24 C8.09972512,24 6.39820647,22.8318567 5.72714597,21.0667426 L7.52372655,21.0667426 Z M9.99973149,0 C10.8466742,0 11.6319233,0.439860904 12.069545,1.15990592 C12.5071668,1.87995094 12.5333047,2.77492732 12.1384412,3.51894606 C15.0983681,4.424016 17.2505052,7.16269254 17.2505052,10.4000375 L17.2505052,16.4251259 L19.6137203,18.3808663 C19.9610076,18.6684489 20.0897365,19.1412074 19.935713,19.5633893 C19.7816896,19.9855712 19.3778995,20.2667398 18.9257024,20.2667398 L1.07376056,20.2667398 C0.621661946,20.2667398 0.218079131,19.9852669 0.0641954984,19.5631386 C-0.0896881338,19.1410104 0.0390680008,18.6683862 0.386279814,18.3808663 L2.74895783,16.4251259 L2.74895783,10.4000375 C2.74895783,7.16269254 4.90109488,4.424016 7.86209599,3.51787941 C7.46784563,2.77411061 7.49415257,1.87973784 7.93144772,1.16008681 C8.36874288,0.440435787 9.15329733,0.000384356662 9.99973149,0 Z M9.99973149,4.80001735 C6.88512139,4.80001735 4.36024087,7.30722639 4.36024087,10.4000375 L4.36024087,17.1749953 L2.55721515,18.666734 L17.4422478,18.666734 L15.6392221,17.1749953 L15.6392221,10.4000375 C15.6392221,7.30722639 13.1143416,4.80001735 9.99973149,4.80001735 Z M9.99973149,1.60000582 C9.55478797,1.60000582 9.19408998,1.95817931 9.19408998,2.40000871 C9.19408998,2.8418381 9.55478797,3.20001159 9.99973149,3.20001159 C10.444675,3.20001159 10.805373,2.8418381 10.805373,2.40000871 C10.805373,1.95817931 10.444675,1.60000582 9.99973149,1.60000582 Z" id="形状"></path>
                </g>
            </g>
        </g>
    </g>
</svg>