<?xml version="1.0" encoding="UTF-8"?>
<svg width="22px" height="18px" viewBox="0 0 22 18" version="1.1" xmlns="http://www.w3.org/2000/svg" xmlns:xlink="http://www.w3.org/1999/xlink">
    <title>上传 (1)</title>
    <g id="拍机用户" stroke="none" stroke-width="1" fill="none" fill-rule="evenodd">
        <g id="拍机-任务中心-拍摄中-拍摄中心-进行拍摄-裁减后拍摄" transform="translate(-1792.000000, -31.000000)" fill="#FFFFFF" fill-rule="nonzero">
            <g id="编组-3备份" transform="translate(0.000000, 20.000000)">
                <g id="编组-7" transform="translate(1642.000000, 10.000000)">
                    <g id="上传-(1)" transform="translate(150.000000, 1.000000)">
                        <path d="M12.3053835,17.5059705 C12.3053835,17.6369953 12.2527087,17.7626536 12.1589471,17.8553021 C12.0651854,17.9479506 11.9380173,18 11.8054183,18 L10.8054879,18 C10.6728888,18 10.5457207,17.9479506 10.4519591,17.8553021 C10.3581974,17.7626536 10.3055226,17.6369953 10.3055226,17.5059705 L10.3055226,10.738313 L8.705634,10.738313 C8.62988486,10.738313 8.56063705,10.6960236 8.526761,10.6290759 C8.49288495,10.5621282 8.50019564,10.482014 8.54564512,10.4221342 L11.1454642,6.99653381 C11.1832324,6.946774 11.242506,6.91748908 11.3054531,6.91748908 C11.3684001,6.91748908 11.4276737,6.946774 11.4654419,6.99653381 L14.065261,10.4221342 C14.1107105,10.482014 14.1180212,10.5621282 14.0841451,10.6290759 C14.0502691,10.6960236 13.9810213,10.738313 13.9052721,10.738313 L12.3053835,10.738313 L12.3053835,17.5059705 Z" id="路径"></path>
                        <path d="M17.0050564,12.8458427 C18.4871878,12.848575 19.7491825,11.7813254 19.9753214,10.333935 C20.2014604,8.8865447 19.3239518,7.49291116 17.9099934,7.05384121 L16.9760584,6.76236384 L16.6360821,5.8533496 C15.7656296,3.52349412 13.5183656,1.97620053 11.004974,1.97620053 C8.49158236,1.97620053 6.24431836,3.52349412 5.37386585,5.8533496 L5.03488944,6.76236384 L4.10095445,7.05384121 C2.69265158,7.49775173 1.82103763,8.8886951 2.04657953,10.3322641 C2.27212143,11.7758332 3.52767492,12.8422744 5.00589146,12.8458427 C5.55813779,12.8458427 6.00582188,13.2882118 6.00582188,13.8339017 C6.00582188,14.3795916 5.55813779,14.821964 5.00589146,14.821964 C2.53697345,14.8247903 0.435620141,13.046406 0.0589644653,10.6353552 C-0.317691211,8.22430438 1.14313915,5.90256892 3.49799641,5.16961281 C4.65824625,2.06314858 7.65441678,0 11.0054739,0 C14.3565311,0 17.3527016,2.06314858 18.5129515,5.16961281 C20.8621462,5.90741659 22.3170736,8.22645829 21.9410157,10.6336823 C21.5649579,13.0409062 19.4700549,14.818481 17.0050564,14.821964 C16.4528101,14.821964 16.005126,14.3795916 16.005126,13.8339017 C16.005126,13.2882118 16.4528101,12.8458427 17.0050564,12.8458427 Z" id="路径"></path>
                    </g>
                </g>
            </g>
        </g>
    </g>
</svg>